<!--Fork form paomedia  License: PD. Made by paomedia: https://github.com/paomedia/small-n-flat-->
<svg width="800" height="800" viewBox="0 0 24 24" xmlns="http://www.w3.org/2000/svg"><defs><linearGradient id="a" x1="0%" y1="0%" x2="100%" y2="100%"><stop offset="0%" stop-color="#ff7f00"/><stop offset="100%" stop-color="#ff4500"/></linearGradient><linearGradient id="b" x1="0%" y1="0%" x2="100%" y2="100%"><stop offset="0%" stop-color="#ffb347"/><stop offset="100%" stop-color="#ff8c42"/></linearGradient></defs><path d="M3 8v13a2 2 0 0 0 2 2h14a2 2 0 0 0 2-2V8z" fill="url(#a)"/><path d="M3 1035.4v13c0 1.1.895 2 2 2h14c1.105 0 2-.9 2-2v-13z" fill="url(#b)" transform="translate(0 -1028.4)"/><path d="M3 6v13c0 1.1.895 2 2 2h14c1.105 0 2-.9 2-2V6z" fill="#ecf0f1"/><path d="M3 5v13c0 1.1.895 2 2 2h14c1.105 0 2-.9 2-2V5z" fill="#bdc3c7"/><path d="M5 1a2 2 0 0 0-2 2v18a2 2 0 0 0 2 2h2v-1H5.5a1.5 1.5 0 0 1 0-3H19a2 2 0 0 0 2-2V3a2 2 0 0 0-2-2z" fill="url(#a)"/><path d="M8 1v18h11a2 2 0 0 0 2-2V3a2 2 0 0 0-2-2z" fill="url(#b)"/><text x="50%" y="50%" dominant-baseline="middle" text-anchor="middle" font-size="4" font-weight="bold" fill="#fff">
    FreeEdu
  </text></svg>